HIERARCHY
ROOT Hips
{
     OFFSET 1.88212 96.90440 -13.34250
     CHANNELS 6 Xposition Yposition Zposition Zrotation Xrotation Yrotation
     JOINT Spine
     {
          OFFSET 0.00000 11.89050 0.00000
          CHANNELS 3 Zrotation Xrotation Yrotation
          JOINT Spine1
          {
               OFFSET -0.00000 25.65740 0.12766
               CHANNELS 3 Zrotation Xrotation Yrotation
               JOINT HEad
               {
                    OFFSET 0.00000 8.73416 0.01134
                    CHANNELS 3 Zrotation Xrotation Yrotation
                    End Site
                    {
                         OFFSET -0.29000 12.77420 2.51395
                    }
               }
               JOINT LeftShoulder1
               {
                    OFFSET 8.99000 -0.36225 -0.22000
                    CHANNELS 3 Zrotation Xrotation Yrotation
                    JOINT LeftArm
                    {
                         OFFSET 10.28270 -0.00338 0.32212
                         CHANNELS 3 Zrotation Xrotation Yrotation
                         JOINT LeftForeArm
                         {
                              OFFSET 32.76690 0.09914 -1.42434
                              CHANNELS 3 Zrotation Xrotation Yrotation
                              JOINT LeftHand
                              {
                                   OFFSET 27.56430 0.08536 1.02216
                                   CHANNELS 3 Zrotation Xrotation Yrotation
                                   End Site
                                   {
                                        OFFSET 16.74430 -0.60000 1.50291
                                   }
                              }
                         }
                    }
               }
               JOINT RightShoulder
               {
                    OFFSET -8.99000 -0.36225 -0.22000
                    CHANNELS 3 Zrotation Xrotation Yrotation
                    JOINT RightArm
                    {
                         OFFSET -10.28270 -0.00338 0.32212
                         CHANNELS 3 Zrotation Xrotation Yrotation
                         JOINT RightForeArm
                         {
                              OFFSET -32.89710 0.09914 -1.42434
                              CHANNELS 3 Zrotation Xrotation Yrotation
                              JOINT RightHand
                              {
                                   OFFSET -27.49210 0.08536 1.02216
                                   CHANNELS 3 Zrotation Xrotation Yrotation
                                   End Site
                                   {
                                        OFFSET -16.63120 -0.60000 1.50291
                                   }
                              }
                         }
                    }
               }
          }
     }
     JOINT LeftUpLeg
     {
          OFFSET 8.94580 -8.66707 0.10165
          CHANNELS 3 Zrotation Xrotation Yrotation
          JOINT LeftLeg
          {
               OFFSET 0.00000 -44.42270 1.37270
               CHANNELS 3 Zrotation Xrotation Yrotation
               JOINT LeftFoot
               {
                    OFFSET -0.25355 -42.09240 -1.46059
                    CHANNELS 3 Zrotation Xrotation Yrotation
                    JOINT LeftToes
                    {
                         OFFSET -0.04000 -4.41509 8.49910
                         CHANNELS 3 Zrotation Xrotation Yrotation
                         End Site
                         {
                              OFFSET 0.08000 -0.04745 9.77979
                         }
                    }
               }
          }
     }
     JOINT RightUpLeg
     {
          OFFSET -8.94580 -8.66707 0.10165
          CHANNELS 3 Zrotation Xrotation Yrotation
          JOINT RightLeg
          {
               OFFSET 0.00000 -44.42270 1.37270
               CHANNELS 3 Zrotation Xrotation Yrotation
               JOINT RightFoot
               {
                    OFFSET 0.25355 -42.09240 -1.46059
                    CHANNELS 3 Zrotation Xrotation Yrotation
                    JOINT RightToes
                    {
                         OFFSET 0.04000 -4.41509 8.49910
                         CHANNELS 3 Zrotation Xrotation Yrotation
                         End Site
                         {
                              OFFSET -0.08000 -0.13745 9.77979
                         }
                    }
               }
          }
     }
}
MOTION
Frames: 20
Frame Time: 0.01667
12.20977 91.93394 -19.10373 46.12171 51.92354 170.59572 22.10715 54.59703 -14.56602 -0.01491 -0.02014 -0.00036 21.28377 17.20846 -19.88865 -0.17184 2.08113 4.20643 -60.12643 10.94345 -53.76594 -29.36122 14.39646 -90.16705 13.32488 8.38698 -10.07994 45.54511 2.26812 -7.52699 43.61647 -37.06634 53.19759 -2.36323 -8.84401 55.42086 15.14198 11.59368 9.34417 45.46608 17.73978 -31.61955 -28.07735 21.50379 83.29458 -22.19968 -0.00146 0.00376 17.63541 -23.21227 -72.56670 -74.54789 -38.42924 -22.83935 110.77759 18.05471 -86.67773 -19.08616 0.09471 -0.24799 -12.12470 49.12975 17.61337 
11.40053 91.75011 -18.12405 45.08799 50.97606 170.53630 22.89602 55.46051 -15.56880 -0.01582 -0.01862 -0.00134 22.28554 18.59610 -19.30810 -1.20449 1.02477 4.58724 -59.55223 11.27666 -54.46104 -28.77496 14.14396 -90.19350 13.31162 8.59548 -10.48999 44.07653 1.75144 -6.49205 44.43570 -37.04446 53.41271 -1.84228 -8.09671 57.14923 15.15972 11.66248 9.15893 43.33340 16.45967 -31.64253 -29.35250 21.98548 86.38249 -21.56232 -0.00124 0.00441 16.69412 -23.42526 -71.85332 -66.59254 -35.96503 -22.42786 116.50386 24.74782 -87.65056 -19.73977 0.04289 -0.08477 -10.20781 51.23639 15.23849 
10.58674 91.69742 -17.37577 43.99559 50.03617 170.80753 23.10242 55.44266 -16.11153 -0.01341 -0.01125 -0.00278 23.41291 20.29436 -19.27359 -1.88237 0.74506 4.68934 -58.93980 11.58088 -55.46543 -28.16228 13.70841 -90.11324 13.16737 8.74436 -10.70769 42.90701 1.61491 -6.15016 45.12240 -37.11515 53.63864 -1.23647 -7.14206 58.96292 15.19079 11.73214 9.02491 41.44268 15.29906 -31.82475 -30.32427 22.03506 89.02390 -20.77830 -0.00075 0.00473 15.66149 -23.36994 -71.15071 -58.47723 -33.57988 -22.98685 119.20662 31.92677 -89.83354 -20.21531 0.04657 -0.04394 -10.24024 55.52996 14.13457 
9.80897 91.77197 -16.85444 42.87383 49.06174 171.34927 22.83080 54.65952 -16.24907 -0.01035 -0.00358 -0.00414 24.64460 22.14881 -19.72737 -2.21063 1.13930 4.55186 -58.34875 11.75982 -56.71480 -27.60912 13.16067 -89.91647 13.00373 8.84654 -10.75815 42.00555 1.82874 -6.37927 45.69894 -37.26890 53.92670 -0.57277 -5.99436 60.82219 15.19414 11.69773 8.71497 39.77510 14.28214 -32.10017 -30.95648 21.74207 91.17081 -19.87314 0.00006 0.00477 14.53974 -23.04361 -70.45439 -50.54338 -31.47563 -24.70848 120.41302 39.40982 -93.19767 -20.45268 0.05599 -0.01657 -10.74170 61.37972 13.71876 
9.09579 91.95564 -16.53704 41.77698 48.01345 172.06274 22.23355 53.23029 -16.07632 -0.00684 0.00412 -0.00529 25.93588 24.03111 -20.58689 -2.19204 2.11055 4.20151 -57.86805 11.68674 -58.10542 -27.18044 12.63954 -89.60989 12.81745 8.95112 -10.68025 41.34669 2.36253 -7.06838 46.21472 -37.47622 54.33615 0.11729 -4.67022 62.69094 15.13688 11.58714 8.41254 38.32348 13.40664 -32.39399 -31.24296 21.18787 92.80173 -18.85951 0.00127 0.00453 13.34195 -22.35708 -69.73632 -43.02740 -29.86774 -27.65365 121.54902 47.17282 -98.09726 -20.56006 0.06346 -0.00486 -12.98913 68.00025 14.62625 
8.44799 92.06236 -16.40216 39.47014 45.06271 174.00795 20.26252 49.40609 -15.01177 -0.00309 0.01160 -0.00636 27.21511 25.85748 -21.75992 -1.85230 3.57808 3.66990 -57.59587 11.23732 -59.50842 -26.91034 12.32385 -89.22024 12.72411 9.08905 -10.53178 40.89367 3.19598 -8.13549 46.73662 -37.68842 54.91716 0.80589 -3.18951 64.54507 14.95612 11.34681 7.99765 36.15979 10.90132 -31.67184 -31.25901 20.48921 93.97478 -17.72954 0.00238 0.00401 12.11512 -21.18728 -68.95028 -35.98578 -29.51607 -32.51205 120.55527 57.19407 -102.03098 -18.90202 0.03486 0.06930 -8.69828 59.61152 9.95694 
7.85581 92.00659 -16.41806 37.57396 42.27931 175.53377 18.56866 45.46832 -14.09344 0.00014 0.01870 -0.00734 28.37617 27.57450 -23.13813 -1.23487 5.45271 2.97530 -57.63406 10.29326 -60.79697 -26.82549 12.37942 -88.77036 12.74762 9.25018 -10.35267 40.56520 4.30488 -9.48710 47.34995 -37.85431 55.70322 1.46500 -1.57430 66.36694 14.63354 11.01066 7.60145 34.24477 8.63282 -31.01824 -31.10368 19.73866 94.74665 -16.51067 0.00339 0.00368 10.92667 -19.44243 -68.05416 -28.41807 -29.46644 -37.34965 122.16160 67.62049 -109.10246 -17.33799 0.08592 0.07167 -8.19725 58.94378 9.13196 
7.31625 91.84868 -16.53943 35.89077 39.51413 176.80869 17.07373 41.47333 -13.32864 -0.00060 0.00712 -0.00367 29.53804 29.26352 -24.63101 -0.48485 7.46059 2.26571 -57.81069 9.18489 -62.02797 -26.85101 12.58499 -88.35526 12.82075 9.40590 -10.16412 40.29044 5.52178 -11.03472 48.04807 -37.91221 56.60151 2.08493 0.08125 68.24286 14.26827 10.64308 7.18229 32.42997 6.36244 -30.43026 -30.86667 19.00770 95.39574 -15.26102 0.00373 0.00226 9.02199 -12.79529 -65.68663 -20.82919 -30.01941 -41.65304 129.92264 77.43684 -122.69181 -15.53936 0.03326 0.07488 -7.73410 56.98358 8.38090 
6.81591 91.72174 -16.73572 34.42426 36.76759 177.83832 16.14269 37.81613 -13.03566 0.01834 0.03053 -0.01260 30.24655 30.56751 -25.78026 0.20424 9.10601 1.61228 -58.15481 7.74358 -63.15483 -26.33977 14.11010 -87.46513 14.20247 8.65736 -10.46502 39.77958 6.57185 -12.24227 48.84777 -37.89886 57.60880 2.64764 1.77882 70.11053 13.83999 10.19288 6.76215 30.74810 4.09484 -29.89716 -30.58375 18.29025 95.91024 -14.00961 0.00394 0.00179 6.82351 -3.16137 -63.39893 -13.44427 -31.08984 -45.43969 175.44475 84.67656 -174.34059 -13.37574 0.03802 0.08685 -7.44208 53.90495 7.76160 
6.32396 91.73784 -16.98254 33.23507 33.51310 178.30290 15.44631 34.05527 -12.56614 0.01885 0.03112 -0.01386 30.55729 31.57674 -26.59881 3.57891 12.03548 -1.19527 -61.28119 3.72788 -64.53277 -25.42905 16.85111 -86.26610 16.69097 7.09695 -11.21930 39.09168 7.50347 -13.14196 49.76037 -37.79410 58.72581 3.13401 3.51725 71.96292 13.33798 9.66037 6.36769 29.28761 1.55325 -28.89536 -30.32733 17.56482 95.68535 -12.77472 0.00955 0.00797 4.96125 2.87594 -61.36507 -6.45910 -33.01522 -48.58640 246.13019 80.69189 -251.16438 -10.72758 0.05187 0.09949 -7.53180 49.95175 7.41196 
5.94689 91.63205 -17.29062 31.60516 30.04126 178.56183 14.33819 30.54348 -11.77337 0.00793 0.03601 -0.00449 30.18894 32.50197 -26.61531 5.86959 14.10989 -3.00563 -63.92514 -0.89156 -65.62728 -24.27748 19.81583 -85.40244 20.64537 9.76454 -10.75706 35.96698 11.37685 -12.21509 55.28811 -38.61802 61.64594 3.57593 5.74297 74.46086 15.79125 6.53293 8.55607 27.73128 -1.05287 -27.90672 -30.10484 16.90912 95.01365 -11.86656 0.01389 0.00633 6.54245 4.11034 -63.66328 0.87288 -34.54415 -50.03939 270.69461 72.47443 -282.24054 -7.91925 0.08545 0.05192 -6.91736 42.99794 6.35564 
5.59431 91.46386 -17.66529 29.55159 26.39319 178.54851 12.83548 27.27437 -10.68444 0.00529 0.03488 -0.00504 29.11602 33.37746 -25.81734 7.23179 15.51258 -3.90291 -66.39943 -6.06619 -66.44936 -22.81794 22.98910 -85.01691 24.62070 14.12157 -9.51684 32.99372 14.27179 -11.16273 60.44793 -37.37025 64.30744 3.91984 8.39610 77.37620 19.18388 2.69769 12.15963 26.04294 -3.72506 -26.91094 -30.04033 16.23337 93.98977 -11.20378 0.01321 0.00493 10.23048 2.01702 -67.88418 8.40214 -35.43573 -49.87220 280.93149 63.45938 -299.73236 -4.19045 0.11163 -0.00383 -7.53380 33.82061 5.71315 
5.25123 91.24794 -18.03846 27.10804 22.62581 178.19443 10.98074 24.24637 -9.33932 0.00384 0.03352 -0.00623 27.33643 34.18117 -24.21362 7.80863 16.34762 -4.03764 -68.90833 -11.75947 -67.07103 -20.96245 26.32686 -85.24758 27.72785 19.06437 -7.82237 30.04048 16.29242 -10.03047 65.03345 -34.38978 66.53890 4.18378 11.39760 80.41387 22.68240 -0.84039 16.57424 24.19471 -6.46564 -25.90238 -30.20175 15.46146 92.69185 -10.70633 0.01144 0.00436 14.91886 -2.54225 -72.48650 15.87170 -35.50468 -48.32215 286.67795 54.52337 -313.32742 -0.40565 0.13741 -0.03039 -8.34027 23.34257 5.63696 
4.90590 91.09868 -18.33335 23.34743 18.57250 176.91113 7.85891 22.18619 -7.11231 0.01424 0.10545 -0.02154 23.10123 34.44168 -19.88417 5.93302 15.24610 -2.53018 -71.39358 -19.58520 -66.98935 -17.88911 29.97647 -86.64713 27.35462 23.96947 -6.10029 27.33556 15.61740 -8.42155 67.91555 -27.41900 67.33139 4.72797 14.78170 83.48222 24.89946 -2.45369 21.91383 21.92397 -9.00084 -24.57739 -30.60560 14.51495 90.24062 -10.94409 -0.01103 0.01051 20.79748 -12.00786 -76.65226 22.03586 -33.93329 -44.06884 293.75995 47.47155 -326.90405 -1.47848 -0.03315 0.02674 -5.05570 10.09846 4.97354 
4.59608 91.11015 -18.50433 18.55109 14.56468 174.62227 3.65601 20.93170 -4.27648 0.01166 0.09771 -0.02561 16.81242 33.97993 -13.41675 3.91998 13.14934 -0.88870 -75.61008 -29.11398 -67.34734 -13.77066 33.91949 -89.29877 21.68625 6.96113 -6.11822 24.52752 14.02033 -6.51051 70.51235 -18.59368 68.03616 5.60381 18.15536 86.11972 26.38720 -0.28143 24.73079 19.54945 -10.97400 -22.95638 -31.10675 12.69632 86.44118 -11.90408 -0.05425 -0.00111 19.76499 -7.24070 -67.62630 25.60904 -31.13964 -38.52994 301.13187 40.99908 -338.74792 -2.26488 -0.02156 0.03428 -2.83573 -0.85324 5.32094 
4.35231 91.33882 -18.54206 12.93779 10.97669 171.31384 -1.55005 20.33681 -1.05093 0.00930 0.08787 -0.02886 8.90175 32.28697 -5.41770 1.97543 10.18437 0.70802 -81.84304 -39.58947 -69.07079 -8.77048 37.81985 -93.18825 20.78738 21.51360 -5.04920 21.90734 11.58784 -4.27411 72.75047 -8.99570 68.61647 6.90254 21.46208 88.31200 16.26360 9.06730 11.00347 17.06520 -12.14254 -21.05769 -31.43929 9.66931 81.45879 -13.41273 -0.10225 -0.01477 30.05456 -19.26332 -72.99933 26.22585 -27.70478 -32.38905 308.43820 35.34672 -348.38971 -4.66989 -0.05881 0.05671 0.47086 -11.99171 5.59703 
4.16423 91.75284 -18.47427 8.33528 8.33676 168.14024 -5.85633 19.71414 1.46732 -0.00984 -0.01643 -0.00141 0.44893 30.19660 2.77077 0.60905 7.79927 1.59590 -91.35880 -50.52090 -73.92039 -8.24825 44.54913 -97.22929 20.28520 3.95840 -5.24191 20.14067 9.54256 -2.47867 73.92895 -2.87645 68.86994 7.54642 23.07186 89.69683 17.80854 11.00713 11.41961 14.84472 -12.90069 -19.86619 -30.70328 6.79953 75.49312 -15.65890 -0.16660 -0.02782 29.20691 -9.59207 -58.88934 24.96885 -24.22341 -27.39030 316.05472 30.65352 -356.26941 -7.66529 -0.06320 0.05622 0.09066 -7.26294 9.07577 
4.00121 92.30625 -18.36135 4.73487 6.44577 165.23764 -9.30642 19.15960 3.42142 -0.01322 -0.02149 -0.00081 -6.67490 27.58553 9.49036 -0.22458 5.77772 1.96468 -107.53749 -60.76140 -85.74971 -11.09843 53.24947 -99.74892 16.82957 8.89300 -5.83669 19.04642 7.76188 -1.01680 74.59333 1.18860 69.01933 7.52475 23.85139 90.64714 14.33789 15.67928 5.64188 12.67362 -13.32684 -19.33399 -29.12649 3.90935 69.35008 -17.96124 -0.17935 -0.03483 35.13491 -9.54895 -53.91544 22.32805 -21.03504 -23.18265 324.24155 26.74438 -362.83850 -11.54256 -0.06554 0.05631 4.73787 -25.30510 8.53678 
3.80767 92.93174 -18.27419 2.07336 5.12160 162.68816 -11.98969 18.72188 4.93410 -0.01347 -0.02087 -0.00189 -12.49288 24.84286 14.88967 -0.62910 4.18305 2.26673 -125.26152 -66.05215 -100.78868 -14.23418 59.33944 -100.25573 17.37574 0.58423 -5.90291 18.49959 6.33588 0.03047 75.03720 4.08181 69.06176 6.89142 24.40489 91.58495 16.21675 15.66536 6.90994 10.45000 -13.43337 -19.37357 -26.30240 1.66823 64.09792 -20.84924 -0.19929 -0.03995 36.76863 -5.14377 -45.53869 18.84834 -18.22711 -19.40915 331.31232 23.64561 -367.74509 -14.27166 -0.02578 0.03775 3.61448 -15.52339 10.99311 
3.51272 93.56432 -18.27135 0.25294 4.21948 160.52689 -14.00235 18.42626 6.10365 -0.01195 -0.01918 -0.00217 -17.13837 22.18847 19.18352 -0.82347 2.98146 2.60168 -140.85936 -68.04433 -114.94144 -17.88028 63.39848 -98.88377 15.76942 4.66706 -6.58766 18.30880 5.25304 0.81816 75.44204 6.10782 69.03844 5.87108 24.86063 92.44462 14.46138 17.55120 4.41527 8.15128 -13.27211 -19.86586 -22.56570 0.35500 60.89643 -24.34402 -0.17850 -0.04264 40.25897 -3.39901 -41.36039 14.84755 -15.74457 -15.84167 338.07300 21.36349 -371.95410 -16.43938 -0.00690 0.02631 5.40064 -19.86838 11.45509 
